# xmcd
#
# Track frame offsets:
#	150
#	15419
#	30005
#	42069
#	55192
#	74557
#	91470
#	106126
#	119681
#	132498
#	145621
#	161057
#
# Disc length: 2351 seconds
#
# Revision: 0
# Processed by: cddbd v1.5.1PL2 Copyright (c) Steve Scherf et al.
# Submitted via: EasyCDDAExtractor 8.2.3.1
#
DISCID=9a092d0c
DTITLE=Jacó e Jacózinho - Viva o lari larai
DYEAR=1966
DGENRE=Sertanejo
TTITLE0=Fundanga
TTITLE1=Um beijo só
TTITLE2=Três noites
TTITLE3=Conselho
TTITLE4=Chico mulato
TTITLE5=Guerra de poesia
TTITLE6=Viva o lari larai
TTITLE7=O mandamento das moças
TTITLE8=Mar vermelho
TTITLE9=Perereca
TTITLE10=O jogador de baralho
TTITLE11=É fogo
EXTD=
EXTT0=
EXTT1=
EXTT2=
EXTT3=
EXTT4=
EXTT5=
EXTT6=
EXTT7=
EXTT8=
EXTT9=
EXTT10=
EXTT11=
PLAYORDER=
